<svg width="90" height="90" viewBox="0 0 90 90" fill="none" xmlns="http://www.w3.org/2000/svg">
<path d="M9.71014 52.3829C9.71014 52.3829 9.34452 51.4759 8.21249 51.0118C7.15077 50.5759 4.66874 50.5196 3.59999 51.8204C2.47499 53.1915 2.51015 55.1884 2.14452 58.7251C1.85624 61.4532 1.60312 64.4977 2.04609 65.8899C2.37655 66.9376 3.34686 67.9642 5.59686 68.0274C7.83983 68.0907 8.90155 66.6563 8.90155 66.6563L9.71014 52.3829Z" fill="#31322E"/>
<path d="M86.9133 57.9658C86.9133 57.9658 87.2367 56.0885 85.5281 54.3799C83.8195 52.6713 82.6734 52.5025 80.4797 52.3408C78.2859 52.1791 70.2141 51.933 70.2141 51.933C70.2141 51.933 52.5305 32.3791 52.3688 32.2174C52.207 32.0557 16.0313 31.8096 14.7234 31.8096C13.4156 31.8096 11.2219 32.8713 10.8914 34.7416C10.568 36.6189 8.78204 55.1885 8.78204 55.1885L44.3039 63.9916L86.9133 57.9658Z" fill="#489DF6"/>
<path d="M48.8953 65.4962L72.8297 60.1665L86.7586 71.4798C86.7586 71.4798 88.6289 71.2899 88.6289 73.1603C88.6289 75.0306 88.8188 78.3001 88.4391 78.5813C88.0594 78.8626 22.1555 79.1438 22.1555 79.1438C22.1555 79.1438 6.54612 79.0524 6.07503 78.7712C5.60393 78.4899 5.55471 78.1595 5.42112 75.2204C5.34377 73.5399 4.98518 71.9931 6.85549 71.8032C7.03127 71.7892 7.40393 71.7751 7.55862 71.747C9.03518 71.4657 9.35159 70.7345 9.35159 70.7345L15.6164 60.729L38.1446 62.5993L48.8953 65.4962Z" fill="#506D71"/>
<path d="M70.2492 68.1959C75.8883 68.1045 80.0719 72.0982 80.0719 77.8357C80.0719 82.6521 76.7953 86.8638 70.8891 87.1099C64.4344 87.3842 60.8907 82.392 60.7992 78.2013C60.7078 74.0107 63.7031 68.3013 70.2492 68.1959Z" fill="#4C443F"/>
<path d="M70.6148 72.464C73.7016 72.6117 75.7055 74.8265 75.6141 77.5546C75.5227 80.2828 73.4344 82.8281 70.3406 82.7367C67.2469 82.6453 65.3414 80.4656 65.25 77.8289C65.1656 75.2835 66.7969 72.2812 70.6148 72.464Z" fill="#C8C8C8"/>
<path d="M18.1969 69.4056C22.9571 66.3892 28.6102 67.6127 31.6055 72.5064C34.1227 76.6197 33.5461 81.9634 28.6102 85.2119C23.7938 88.383 17.7821 86.2736 15.518 82.7439C13.2539 79.2213 12.6703 72.9072 18.1969 69.4056Z" fill="#4C443F"/>
<path d="M20.8266 72.7102C23.5406 71.2266 26.5148 72.4079 27.7523 74.4469C29.1656 76.7813 28.6453 80.086 25.9594 81.6188C23.2734 83.1516 20.5664 82.2516 19.0547 80.086C17.8805 78.4055 17.4727 74.5454 20.8266 72.7102Z" fill="#C8C8C8"/>
<path d="M87.1734 71.4939C86.6109 71.5501 81.9773 71.4587 81.9773 71.4587C81.9773 71.4587 80.6695 67.8165 76.9852 65.8267C72.4359 63.3728 66.6211 63.647 62.8031 66.3751C58.6547 69.3423 58.1695 72.4994 58.1695 72.4994L35.6203 72.3728C35.6203 72.3728 34.3477 67.5564 29.9813 64.8283C25.8961 62.2759 19.6453 62.6345 16.0664 65.2853C11.5172 68.6462 11.0672 71.74 11.0672 71.74C11.0672 71.74 7.91719 71.754 7.53751 71.754C7.37579 71.754 7.88203 63.8298 7.88203 63.8298L8.78907 55.1884C8.78907 55.1884 18.7875 55.097 24.7008 56.7353C30.6141 58.3736 35.9789 58.5564 43.8891 58.465C51.7992 58.3736 57.3469 57.6494 61.2563 56.9181C65.1656 56.1939 70.6219 55.6455 75.4383 57.0095C80.2547 58.3736 81.6188 60.3705 81.6188 60.3705C81.6188 60.3705 87.075 63.19 87.2578 63.7314C87.4406 64.2728 87.1734 71.4939 87.1734 71.4939Z" fill="#1D86FB"/>
<path d="M12.164 56.3975C12.389 56.8615 12.2414 58.9709 12.2133 61.0873C12.1922 62.8311 12.2695 64.2654 11.9812 64.4412C11.707 64.617 7.77654 64.399 7.77654 64.399L8.45857 56.7982L8.60623 56.2568C8.61326 56.2568 12.0586 56.1936 12.164 56.3975Z" fill="#FF2A23"/>
<path d="M85.3031 57.0375C85.3031 57.0375 79.1789 56.8125 78.8063 57.2203C78.4336 57.6281 78.8063 58.6266 79.5516 60.0398C80.2969 61.4531 81.6258 63.5273 81.886 63.7523C82.1461 63.9773 85.4227 63.9 85.4227 63.9L86.7516 58.8516L85.3031 57.0375Z" fill="white"/>
<path d="M87.1594 57.0728C87.1594 57.0728 87.532 58.5142 87.5672 60.4126C87.6024 62.304 87.2719 63.9001 87.2719 63.9001H85.4156C85.4156 63.9001 85.6336 62.304 85.5985 60.5181C85.5633 58.6618 85.1555 57.0376 85.1555 57.0376L87.1594 57.0728Z" fill="#D7CCC5"/>
<path d="M50.5406 35.9932C51.7359 36.64 55.1672 41.1119 56.925 43.2424C58.6828 45.3729 63.3164 50.8572 63.6398 51.4971C63.9562 52.1369 63.8508 52.9385 62.8383 52.9877C61.8258 53.0439 35.2969 53.3041 34.9242 53.2549C34.5515 53.1986 34.3898 52.615 34.4461 52.0807C34.5023 51.5463 34.1789 37.54 34.2844 36.9002C34.3898 36.2604 35.1351 35.6768 36.4148 35.6768C37.5398 35.6838 49.9008 35.6486 50.5406 35.9932Z" fill="#506D73"/>
<path d="M49.5633 37.5255C50.0977 37.842 60.075 49.9287 60.3282 50.2591C60.7008 50.7373 60.7078 51.131 60.075 51.131C59.4422 51.131 37.4907 51.1873 36.9563 51.1873C36.4219 51.1873 36.1055 50.8146 36.1547 50.231C36.211 49.6474 35.8875 38.299 35.993 37.9826C36.0985 37.6662 36.3657 37.2935 36.9492 37.2935C37.5328 37.2935 49.1063 37.2584 49.5633 37.5255Z" fill="#AFE3FB"/>
<path d="M28.9617 35.6837C29.3906 35.6837 30.2414 36.0563 30.2414 36.8579C30.2414 37.6595 30.1359 52.2001 30.1359 52.6782C30.1359 53.1563 29.8195 53.2126 29.018 53.2126C28.2164 53.2126 14.3156 53.0509 13.732 53.0509C13.1484 53.0509 13.1484 52.3056 13.1976 51.7712C13.2539 51.2368 14.9555 37.8142 15.0609 36.9634C15.1664 36.1126 15.8062 35.5782 16.657 35.522C17.5078 35.4657 28.9617 35.6837 28.9617 35.6837Z" fill="#506D73"/>
<path d="M59.0555 52.9171C59.0555 52.9171 57.9867 54.5694 57.2063 55.3358C56.475 56.053 55.4274 56.6366 54.4219 56.5523C53.4164 56.4749 52.7836 55.5327 52.6149 52.5515C52.425 49.2538 53.1633 48.4874 54.4219 48.4523C55.7086 48.4101 55.8352 48.8952 56.6367 49.6616C57.0727 50.0765 59.0555 52.9171 59.0555 52.9171Z" fill="#0250AC"/>
<path d="M55.9687 53.1913C55.1461 53.0929 54.5414 52.6077 54.0141 51.3562C53.4867 50.1046 53.9578 49.2749 54.4852 48.9655C55.0758 48.614 55.6594 48.7335 55.8 48.8038C55.9125 48.8601 56.3766 49.303 56.8406 49.8655C57.4734 50.6249 58.0078 51.4405 58.0078 51.4405C58.0078 51.4405 57.1289 53.3319 55.9687 53.1913Z" fill="#489DF6"/>
<path d="M28.2164 37.4906C28.4203 37.6945 28.2164 51.1242 28.0547 51.2367C27.8929 51.3422 15.4336 51.3984 15.2719 51.2367C15.1101 51.075 16.868 37.4414 17.0859 37.2797C17.2969 37.118 28.0054 37.2797 28.2164 37.4906Z" fill="#AFE3FB"/>
</svg>
